<svg id="a0cbd8ed-242d-4c1b-97b1-fe8d5c100736" data-name="Layer 1" xmlns="http://www.w3.org/2000/svg" width="884.74821" height="692.40538" viewBox="0 0 884.74821 692.40538"><circle cx="10.94089" cy="10.94089" r="10.94089" fill="#0c0a31"/><path id="e6ea0e41-1551-4462-b232-d3652d8fe400" data-name="Path 40" d="M213.65567,109.07315a5.66581,5.66581,0,0,0,0,11.3301H480.73529a5.66581,5.66581,0,0,0,.186-11.3301q-.093-.00157-.186,0Z" transform="translate(-157.6259 -103.79731)" fill="#0c0a31"/><circle cx="10.94089" cy="64.08234" r="10.94089" fill="#0c0a31"/><path id="b5b77324-f5bf-463e-8e73-854e17fb3a5e" data-name="Path 40" d="M213.65567,162.2146a5.66582,5.66582,0,0,0,0,11.33011H480.73529a5.66582,5.66582,0,0,0,.186-11.33011q-.093-.00157-.186,0Z" transform="translate(-157.6259 -103.79731)" fill="#0c0a31"/><circle cx="10.94089" cy="117.2238" r="10.94089" fill="#e6e6e6"/><path id="ae76d8c3-fd3d-40ae-a33a-0e026886620b" data-name="Path 40" d="M213.65567,215.35606a5.66582,5.66582,0,0,0,0,11.33011H480.73529a5.66582,5.66582,0,0,0,.186-11.33011q-.093-.00158-.186,0Z" transform="translate(-157.6259 -103.79731)" fill="#e6e6e6"/><circle cx="10.94089" cy="170.36526" r="10.94089" fill="#0c0a31"/><path id="e236fc4d-9e6e-461b-837e-a37ad72ef661" data-name="Path 40" d="M213.65567,268.49752a5.66581,5.66581,0,0,0,0,11.3301H480.73529a5.66581,5.66581,0,0,0,.186-11.3301q-.093-.00158-.186,0Z" transform="translate(-157.6259 -103.79731)" fill="#0c0a31"/><circle cx="10.94089" cy="223.50671" r="10.94089" fill="#e6e6e6"/><path id="b7ffd8d8-2e79-432b-8f4c-785e62ad7331" data-name="Path 40" d="M213.65567,321.639a5.66582,5.66582,0,0,0,0,11.33011H480.73529a5.66582,5.66582,0,0,0,.186-11.33011q-.093-.00157-.186,0Z" transform="translate(-157.6259 -103.79731)" fill="#e6e6e6"/><circle cx="10.94089" cy="276.64817" r="10.94089" fill="#0c0a31"/><path id="fe8d4530-b1df-40a5-a94a-c390c1a0296a" data-name="Path 40" d="M213.65567,374.78043a5.66582,5.66582,0,0,0,0,11.33011H480.73529a5.66582,5.66582,0,0,0,.186-11.33011q-.093-.00158-.186,0Z" transform="translate(-157.6259 -103.79731)" fill="#0c0a31"/><circle cx="10.94089" cy="329.78963" r="10.94089" fill="#e6e6e6"/><path id="e0abff08-3347-4f07-825e-d3eb498014c9" data-name="Path 40" d="M213.65567,427.92189a5.66581,5.66581,0,0,0,0,11.3301H480.73529a5.66581,5.66581,0,0,0,.186-11.3301q-.093-.00158-.186,0Z" transform="translate(-157.6259 -103.79731)" fill="#e6e6e6"/><path d="M1042.34368,627.02733c-1.26,4.76-28.0199,102.9-106.6499,142.4q-4.92,2.47494-10.13,4.63l-.82-1.25-.96-1.46,1.32.29a6.006,6.006,0,0,0,6.77-3.4c27.46-13.06,47.93-62.18,47.93-120.6a224.325,224.325,0,0,0-7.88-60.21l.87-3.96,2.64-11.96c3.05005-7.19995,6-14.28,8.78-21.19,15.11-37.58,25.3999-69.87,23.55005-84.63995.93994,5.76,19.41992,123.28-27.92017,228.41C1009.51385,667.91735,1038.37371,639.94732,1042.34368,627.02733Z" transform="translate(-157.6259 -103.79731)" fill="#e6e6e6"/><rect x="278.65241" y="668.53085" width="606.0958" height="2" fill="#3f3d56"/><path d="M770.30578,522.63986c-23.39,0-43.9,24.43-55.21,60.91-.8,2.56-1.55,5.19-2.25,7.86a227.65067,227.65067,0,0,0-7.04,57.23c0,69.48,28.93,126,64.5,126s64.5-56.52,64.5-126S805.87579,522.63986,770.30578,522.63986Zm0,250c-34.46,0-62.5-55.63-62.5-124a226.35915,226.35915,0,0,1,7.13-57.46q.99-3.765,2.12-7.38c11.01-35.47,30.76-59.16,53.25-59.16,34.46,0,62.5,55.63,62.5,124S804.76581,772.63986,770.30578,772.63986Z" transform="translate(-157.6259 -103.79731)" fill="#3f3d56"/><path d="M785.80578,721.49044c-12.33691,0-22-32-22-72.85058s9.66309-72.85059,22-72.85059,22,32,22,72.85059S798.1427,721.49044,785.80578,721.49044Zm0-143.70117c-10.84082,0-20,32.44531-20,70.85059s9.15918,70.85058,20,70.85058,20-32.44531,20-70.85058S796.6466,577.78927,785.80578,577.78927Z" transform="translate(-157.6259 -103.79731)" fill="#3f3d56"/><ellipse cx="630.67989" cy="544.84259" rx="8.5" ry="16.7323" fill="#cfcce0"/><polygon points="612.18 295.842 749.18 295.342 749.18 349.315 612.18 354.842 612.18 295.842" fill="#3f3d56"/><polygon points="495.178 478.897 493.182 478.788 499.234 368.842 623.18 368.842 623.18 370.842 501.127 370.842 495.178 478.897" fill="#3f3d56"/><polygon points="493.229 658.459 421.152 646.815 421.132 643.405 493.208 655.049 493.229 658.459" fill="#3f3d56"/><polygon points="590.947 692.405 495.152 683.815 495.272 680.387 591.067 688.978 590.947 692.405" fill="#3f3d56"/><path d="M864.05578,582.79983q-1.125,3.61506-2.12,7.38l-2.09.23-65.04,7.23-149-15,155-8,61.29,7.91Z" transform="translate(-157.6259 -103.79731)" fill="#3f3d56"/><polygon points="482.68 577.342 472.68 611.342 491.68 627.342 505.68 584.342 482.68 577.342" fill="#9f616a"/><path d="M717.30578,706.13986l-10,36,35,22s1-41,6-49Z" transform="translate(-157.6259 -103.79731)" fill="#9f616a"/><path d="M760.30578,514.13986l-5,10s-57-26-72,10-48,150-48,150l29,12,53-121,121-3,5-67Z" transform="translate(-157.6259 -103.79731)" fill="#2f2e41"/><path d="M802.30578,531.13986s-82-17-88,24,3,119,4,121-4,39-4,39l36,5s23-109,13-137l67.65979-4.18512c23.35566-1.4447,42.43579-19.89447,43.77893-43.25617.51416-8.94262-1.72442-17.05865-9.43866-21.55865-24-14-68-14-68-14Z" transform="translate(-157.6259 -103.79731)" fill="#2f2e41"/><path d="M643.30578,714.13986s-7-15-17-8-33,22-33,22-35.579,12.52844-4,21c28.08936,7.5354,35,6,35,6s23,4,26,2,5-34,5-34S641.30578,720.13986,643.30578,714.13986Z" transform="translate(-157.6259 -103.79731)" fill="#2f2e41"/><path d="M721.30578,745.13986s-10-14-17-8-32,23-32,23-42,12-5,23,78,9,79,5-2-33-2-33S723.30578,754.13986,721.30578,745.13986Z" transform="translate(-157.6259 -103.79731)" fill="#2f2e41"/><polygon points="750.18 363.842 748.18 363.842 748.18 287.511 780.46 296.882 779.901 298.803 750.18 290.174 750.18 363.842" fill="#3f3d56"/><path d="M972.79375,583.46734c-11.25-36.99-31.91-61.83-55.49-61.83-23.39,0-43.9,24.43-55.21,60.91-.8,2.56-1.55,5.19-2.25,7.86a227.69708,227.69708,0,0,0-7.04,57.23c0,69.48,28.93,126,64.5,126a33.802,33.802,0,0,0,7.44-.83c23.99-5.4,44.01-36.61,52.58-79.01a234.10127,234.10127,0,0,0,4.48-46.16C981.80376,624.21734,978.51385,602.26732,972.79375,583.46734Zm-40.92,184.77a33.77332,33.77332,0,0,1-14.57,3.4c-34.46,0-62.5-55.63-62.5-124a226.78537,226.78537,0,0,1,7.13-57.46q.99-3.765,2.12-7.38c11.01-35.47,30.76-59.16,53.25-59.16,23.45,0,43.93,25.77,54.62,63.79a224.325,224.325,0,0,1,7.88,60.21C979.80376,706.05736,959.33373,755.17736,931.87377,768.23736Z" transform="translate(-157.6259 -103.79731)" fill="#3f3d56"/><path d="M932.80578,720.49044c-12.33691,0-22-32-22-72.85058s9.66309-72.85059,22-72.85059,22,32,22,72.85059S945.1427,720.49044,932.80578,720.49044Zm0-143.70117c-10.84082,0-20,32.44531-20,70.85059s9.15918,70.85058,20,70.85058,20-32.44531,20-70.85058S943.6466,576.78927,932.80578,576.78927Z" transform="translate(-157.6259 -103.79731)" fill="#3f3d56"/><ellipse cx="777.67989" cy="543.84259" rx="8.5" ry="16.7323" fill="#cfcce0"/><polygon points="764.18 285.842 785.18 293.842 781.18 304.842 764.18 297.842 764.18 285.842" fill="#3f3d56"/><polygon points="528.18 363.842 528.18 379.842 587.761 379.842 587.761 364.905 528.18 363.842" fill="#3f3d56"/><path d="M752.50182,503.68683l-41.01654,3.14357a12.22578,12.22578,0,0,1-13.09277-10.90924v0A12.22578,12.22578,0,0,1,712.111,482.51449l38.40378,4.94058Z" transform="translate(-157.6259 -103.79731)" fill="#9f616a"/><path d="M832.71374,388.07732a68.1417,68.1417,0,0,1-1.34,13.14l-5.99,85.17-60.21,17.35-17.76,5.12-.81-4.72-3.03-17.57-.94-5.44,21.17-3.81,34.32-6.18,4.09-106.97,13.97-2.54a70.09351,70.09351,0,0,0,2.76-6.79,39.0083,39.0083,0,0,1,9.42,12.56,42.6898,42.6898,0,0,1,2.76,7.65A51.97364,51.97364,0,0,1,832.71374,388.07732Z" transform="translate(-157.6259 -103.79731)" fill="#e6e6e6"/><path d="M886.82378,286.57732a43.91921,43.91921,0,0,0-3.47-5.65,42.94673,42.94673,0,0,0-28.52-17.46,44.44679,44.44679,0,0,0-8.73-.46c-20,.96-37.12,15.69-40.84,36.52-.04.26-.08.5-.12006.75l-.06.39-6.53,42.86,4.59.7,17.93005,2.73,37.47,5.71,26.19,3.99,6.53-42.86A44.36234,44.36234,0,0,0,886.82378,286.57732Z" transform="translate(-157.6259 -103.79731)" fill="#2f2e41"/><circle cx="682.6767" cy="204.12462" r="32.89179" fill="#9f616a"/><path d="M863.87377,371.58733l-32.75,3.46-24.55,2.6a96.06742,96.06742,0,0,0,9.61-16.02,70.09351,70.09351,0,0,0,2.76-6.79,57.98194,57.98194,0,0,0,2.13-7.88,50.81325,50.81325,0,0,0,.94995-11.69,49.94031,49.94031,0,0,0-.65-6.2l39.8-.41q-.96,2.97-1.61,5.92a56.097,56.097,0,0,0-1.02,18.09,57.08134,57.08134,0,0,0,1.49,8.19A65.13616,65.13616,0,0,0,863.87377,371.58733Z" transform="translate(-157.6259 -103.79731)" fill="#9f616a"/><path d="M879.91375,369.40734l-1.29,69.12c-.3.33-.6.66-.88,1-13.68,15.79-16.34,38.31-15.79,60.04.05,2.4.15,4.79.28,7.16-10.03,4.42-20.54,9.04-30.98,12.66-2.05.71-4.09,1.39-6.12,2.01-16.84,5.18-33.18,7.18-46.63,1a38.92206,38.92206,0,0,1-12.86005-9.59l-.47-9.07-1.37-26.42005-1.44-27.85c-8.69-10.49-.02-37.43,19.56-74.73a17.61205,17.61205,0,0,1,12.44-9.14l7.85-1.43,13.97-2.54.23-.04c2.99,3.4,7.04,5.23,11.95,5.81,8.4.96,19.28-1.75,31.6-6.57l.07.03,17.29,7.44Z" transform="translate(-157.6259 -103.79731)" fill="#e6e6e6"/><path d="M882.55437,286.60826,870.395,311.41612l-70.61325-12.04621a44.27448,44.27448,0,0,1,82.77259-12.76165Z" transform="translate(-157.6259 -103.79731)" fill="#2f2e41"/><path d="M735.27687,459.85432a3.17255,3.17255,0,0,0-3.97133-.3909L707.0462,475.26425a3.19148,3.19148,0,0,0-.51011,4.93545l61.694,61.42675a3.19121,3.19121,0,0,0,4.5466-.04391l20.218-20.92546a3.19828,3.19828,0,0,0-.0653-4.50042Z" transform="translate(-157.6259 -103.79731)" fill="#ccc"/><path d="M711.82531,476.95443l2.51057-1.6007a2.392,2.392,0,0,0,3.44276,3.14071l16.24627-11.16931a2.39059,2.39059,0,0,0-.63206-4.25033l1.29346-.82468a.87033.87033,0,0,1,1.087.12212L790.42693,516.082a.87032.87032,0,0,1-.022,1.245L770.556,536.66741a.87034.87034,0,0,1-1.21147-.01682L711.6788,478.30473A.87033.87033,0,0,1,711.82531,476.95443Z" transform="translate(-157.6259 -103.79731)" fill="#fff"/><polygon points="617.278 400.425 600.512 416.233 560.633 376.833 580.872 363.659 617.278 400.425" fill="#0c0a31"/><path d="M719.80886,490.35376a.58113.58113,0,0,0,0-.82054l-3.48744-3.48737a.59433.59433,0,0,0-.82061,0,.58112.58112,0,0,0,0,.82055l3.48743,3.48736a.59434.59434,0,0,0,.82062,0Z" transform="translate(-157.6259 -103.79731)" fill="#e6e6e6"/><path d="M725.68363,495.408l-3.48744-3.48744a.58026.58026,0,0,0-.82061.82062l3.48743,3.48743a.58026.58026,0,1,0,.82062-.82061Z" transform="translate(-157.6259 -103.79731)" fill="#e6e6e6"/><circle cx="616.89089" cy="413.99392" r="3.91651" fill="#0c0a31"/><path d="M832.46191,529.21609l-41.01654,3.14358a12.22579,12.22579,0,0,1-13.09277-10.90925v0a12.22579,12.22579,0,0,1,13.71849-13.40664l38.40378,4.94058Z" transform="translate(-157.6259 -103.79731)" fill="#9f616a"/><path d="M827.36991,534.38935l-4.77707-27.73717,55.49462-9.98081-.76188-129.00372h0a51.84169,51.84169,0,0,1,34.008,59.07558l-5.994,85.17074Z" transform="translate(-157.6259 -103.79731)" fill="#e6e6e6"/><polygon points="752.181 419.876 751.213 378.842 658.154 378.842 655.18 488.87 653.18 488.815 656.207 376.842 753.147 376.842 753.179 377.808 754.179 419.808 752.181 419.876" fill="#3f3d56"/><polygon points="681.18 371.842 681.18 387.842 740.761 387.842 740.761 372.905 681.18 371.842" fill="#3f3d56"/></svg>