<svg xmlns="http://www.w3.org/2000/svg" width="230" height="241" version="1.1" viewBox="0 0 230 241"><g fill="none" fill-rule="evenodd" stroke="none" stroke-width="1" opacity=".3"><g fill="#000"><g transform="translate(0.000000, -367.000000)"><path id="Fill-1-Copy-2" d="M227,484.700143 C226.840547,500.602601 223.798562,513.56035 217.990162,526.025279 C213.739061,535.150565 208.368133,543.527575 201.960101,551.177613 C195.394769,559.011674 187.982631,566.110449 179.955317,572.528005 C168.297585,581.847842 155.882653,589.982354 142.609609,596.88561 C127.850195,604.5632 112.321003,609.873017 95.8123792,611.926692 C89.7507226,612.680532 83.5402859,613.17497 77.3604544,612.199535 C72.6862849,611.46141 67.8412751,611.447633 63.3096744,610.238091 C56.7166001,608.479505 50.1618034,606.32839 43.8985379,603.638441 C31.3008686,598.232305 20.9818144,589.74069 12.7639271,578.868238 C8.26640988,572.920648 3.70934653,566.930391 0.0394713032,560.476521 C-3.76595623,553.781308 -6.60968652,546.538685 -9.72819741,539.470295 C-12.3707539,533.485561 -14.9123458,527.453147 -17.2983621,521.363166 C-20.7865057,512.458889 -24.6585964,503.648432 -27.3440654,494.500657 C-30.7644889,482.852063 -34.1583654,471.075355 -33.9942805,458.733396 C-33.8370253,446.76917 -31.3981527,435.235622 -25.278187,424.879234 C-19.9201117,415.812466 -12.2830094,408.853164 -2.93424096,403.628837 C7.39277285,397.855448 18.5781763,395.781687 30.0983524,395.742023 C38.5142699,395.713321 46.9311641,396.899392 55.2003915,398.796658 C62.0136534,400.358047 68.8318035,402.055745 75.7430522,402.974943 C83.0199665,403.94321 90.3431625,405.001778 97.7549255,404.506684 C108.267747,403.806252 118.780587,403.071332 129.303238,402.548262 C138.548408,402.091583 147.723364,402.917576 156.868188,404.367658 C164.370021,405.555871 171.518782,407.849542 178.263235,411.141952 C190.943201,417.334703 202.243824,425.25262 210.408209,437.112123 C215.264185,444.163141 219.842123,451.294784 222.385811,459.5016 C223.626274,463.499918 224.697909,467.582086 225.403831,471.700584 C226.264797,476.714049 226.659089,481.804958 227,484.700143" transform="translate(96.500000, 504.242023) rotate(30.000000) translate(-96.500000, -504.242023)" style="mix-blend-mode:multiply"/></g></g></g></svg>