<svg xmlns="http://www.w3.org/2000/svg" width="909" height="721" version="1.1" viewBox="0 0 909 721"><g fill="none" fill-rule="evenodd" stroke="none" stroke-width="1" opacity=".1"><g fill="#ccc" transform="translate(-1744.000000, -1065.000000)"><path id="Fill-3" d="M1954.43919,1792.6682 C1992.31638,1797.09936 2029.78299,1794.70896 2067.01008,1789.73436 C2120.30732,1782.61259 2173.62738,1775.58582 2226.69271,1767.39996 C2260.60085,1762.17074 2294.7713,1756.87312 2327.56171,1748.10961 C2372.16427,1736.19945 2413.88127,1718.36841 2451.75847,1693.72343 C2486.62465,1671.0318 2516.57893,1644.33085 2541.29434,1613.05053 C2563.39792,1585.08407 2579.7228,1554.51441 2591.52734,1521.52015 C2605.34684,1482.89004 2611.12175,1443.30225 2609.82154,1402.9544 C2608.74943,1369.81193 2601.56786,1336.95448 2589.34512,1305.18772 C2567.23773,1247.74609 2531.29564,1197.68846 2481.13487,1156.39053 C2449.00978,1129.9556 2412.8852,1108.35086 2372.457,1092.43138 C2337.29048,1078.58306 2300.84656,1069.59534 2263.61946,1064.1875 C2233.99594,1059.88176 2203.84778,1060.52401 2173.81367,1062.68258 C2137.97042,1065.25919 2103.56046,1072.62418 2070.51913,1083.86549 C2018.80343,1101.46471 1973.74846,1128.28727 1935.14892,1163.71372 C1904.17957,1192.12861 1879.84053,1224.76184 1858.39846,1259.15081 C1848.63167,1274.82708 1842.33591,1292.27808 1834.48522,1308.93102 C1823.53608,1332.13949 1812.37023,1355.27576 1801.75184,1378.60964 C1791.84819,1400.35119 1782.14603,1422.18015 1773.07116,1444.21812 C1761.57836,1472.14277 1750.1578,1500.07883 1743.786,1529.592 C1737.76778,1557.47105 1736.1216,1585.54771 1740.3834,1613.74598 C1744.73265,1642.5447 1755.98213,1669.59528 1773.50077,1694.5861 C1800.94966,1733.75965 1839.22985,1761.07245 1886.84342,1778.21564 C1908.63146,1786.06327 1931.35474,1790.1676 1954.43919,1792.6682" transform="translate(2174.000000, 1428.000000) rotate(205.000000) translate(-2174.000000, -1428.000000)" style="mix-blend-mode:multiply"/></g></g></svg>